# xmcd
#
# Track frame offsets: 
#        150
#        23939
#        43032
#        56145
#        68612
#        93078
#        111703
#        130089
#        151095
#        163246
#        179251
#        203912
#        221540
#        241726
#        259400
#        273706
#
# Disc length: 3920 seconds
#
# Revision: 0
# Processed by: cddbd v1.5.2PL0 Copyright (c) Steve Scherf et al.
# Submitted via: ExactAudioCopy v0.99pb5
#
DISCID=ea0f4e10
DTITLE=Ró¿ni wykonawcy - Skazani na bluesa vol.1
DYEAR=2003
DGENRE=Blues
TTITLE0=01.Good day for the blues - J.J.Band
TTITLE1=02.Miedzy noca a dniem - Banaszak and The Best
TTITLE2=03.Zimny,zimny pot - T>Pocieszynski and The Bluesmobile
TTITLE3=04.Never Drive a stranger from your door - McMahon and Kaminski
TTITLE4=05.Me Be - Q.Bee
TTITLE5=06.Droga - Riders
TTITLE6=07.It` s my own fault - Formacja FRU
TTITLE7=08.Ciagle wiecej - Tipsy Drivers
TTITLE8=09.Boogie woogie papa - J.J.Band
TTITLE9=10.Lek w czepku - Bananasz and The Best
TTITLE10=11.Pojedynczy czlowiek - T.Pocieszynski and The Bluesmobile
TTITLE11=12.Spanish Johnny - McMahon and Kaminski
TTITLE12=13.Make it count  - Q.Bee
TTITLE13=14.Szra mysz,szara mysz - Riders
TTITLE14=15.Too much of nothing - Formacja FRU
TTITLE15=16.Szukajcac celu - Tipsy Drivers
EXTD=
EXTT0=
EXTT1=
EXTT2=
EXTT3=
EXTT4=
EXTT5=
EXTT6=
EXTT7=
EXTT8=
EXTT9=
EXTT10=
EXTT11=
EXTT12=
EXTT13=
EXTT14=
EXTT15=
PLAYORDER=
